<?xml version="1.0" encoding="UTF-8" standalone="no"?>
<svg
   viewBox="0 0 24 24"
   fill="#fff"
   version="1.1"
   id="svg1"
   sodipodi:docname="app.svg"
   inkscape:version="1.3 (0e150ed6c4, 2023-07-21)"
   xmlns:inkscape="http://www.inkscape.org/namespaces/inkscape"
   xmlns:sodipodi="http://sodipodi.sourceforge.net/DTD/sodipodi-0.dtd"
   xmlns="http://www.w3.org/2000/svg"
   xmlns:svg="http://www.w3.org/2000/svg">
  <defs
     id="defs1" />
  <sodipodi:namedview
     id="namedview1"
     pagecolor="#ffffff"
     bordercolor="#000000"
     borderopacity="0.25"
     inkscape:showpageshadow="2"
     inkscape:pageopacity="0.0"
     inkscape:pagecheckerboard="true"
     inkscape:deskcolor="#d1d1d1"
     inkscape:zoom="14.625862"
     inkscape:cx="11.178828"
     inkscape:cy="12.375339"
     inkscape:window-width="1920"
     inkscape:window-height="1010"
     inkscape:window-x="0"
     inkscape:window-y="0"
     inkscape:window-maximized="1"
     inkscape:current-layer="svg1" />
  <g
     id="#ffffffff"
     style="stroke-width:1.02334;stroke-dasharray:none"
     transform="matrix(0.02052106,0,0,0.02052106,-5.0581187,-3.1510033)">
    <path
       id="path1-5"
       class="s1"
       d="m 989.5,251.7 c 6.9,-1.4 14,-0.3 21,0.1 38.4,2.1 76.4,12.7 110.2,31.2 32.7,17.4 61.5,41.9 84.3,71 33.8,43.6 53.7,97.8 55.4,153 0.2,6.9 1.2,14.2 -1.6,20.7 -3.7,8.8 -11.6,15.8 -20.9,17.7 -6.1,1.6 -12.6,0.6 -18.4,-1.8 -9.7,-4.2 -16.7,-14 -17.3,-24.5 -0.9,-13 -1.4,-26.1 -3.8,-39 -7.4,-41 -27.3,-80 -57.2,-109.2 -12.9,-13.1 -27.6,-24.4 -43.6,-33.4 -19.8,-11.1 -41.3,-19.5 -63.6,-23.6 -12.8,-2.7 -25.9,-3.3 -38.9,-3.7 -10.2,-0.2 -20.3,-5.9 -25.4,-14.8 -2.7,-5 -4.3,-10.7 -3.9,-16.4 0.7,-13 10.7,-25.1 23.7,-27.3 z"
       style="stroke-width:1.02334;stroke-dasharray:none" />
    <path
       id="path2"
       class="s1"
       d="m 571.5,296.3 c 15.5,-6.8 33,-8.4 49.6,-5.5 33.9,6.2 62.6,33.7 70.4,67.1 1.4,7 2.4,14 2.2,21.1 0.8,37.2 -0.1,74.4 0.4,111.6 66,-0.1 131.9,-0.2 197.9,0.1 13,-0.1 26.1,2.6 37.7,8.5 24.3,12.1 43.3,35.2 48.7,62 3.2,15.5 2,31.7 -1.8,46.9 -4.9,19.9 -16.8,38.3 -34.2,49.5 -12.1,7.3 -26.4,10.1 -40.4,10.4 q -104,0 -208,0 c 0,61.3 -0.1,122.7 0,184 0.1,12 -0.3,24 0.9,36 2.3,23.5 9.2,46.6 20.6,67.4 9,17.1 21.5,32.2 35.5,45.5 31.8,29.3 74.6,46.8 118,46.9 27.3,0.4 54.6,0.1 82,0.2 9.3,0.2 18.6,0.1 27.8,2.2 20.1,4.2 37.9,16.5 50.7,32.4 10.8,13.4 17.2,30.2 18.4,47.4 1.8,21.3 -4.6,43.4 -17.9,60.2 -5.7,7.8 -13,14.2 -20.8,19.8 -15,10.9 -33.9,15.7 -52.2,15.5 q -18.5,0 -37,0 c -17,-0.2 -34,0.5 -51,-0.2 -66.5,0.2 -132.8,-19.5 -188.6,-55.8 -47.1,-30.4 -87.3,-71.8 -115.3,-120.6 C 537.6,1003.3 522,951 517.9,898 516.2,875.4 517,852.6 516.8,830 q 0,-81 0,-162 c -15.6,-0.2 -31.5,0.7 -46.9,-2.5 -11.9,-2.8 -23.4,-7.8 -32.9,-15.6 -13.4,-10.3 -24.2,-24.2 -30,-40.1 -6.9,-19.2 -7,-40.8 -0.2,-60 8.9,-25.3 29.8,-46.2 55.3,-54.7 17.6,-6 36.4,-4.4 54.6,-4.5 0.5,-40.9 -0.5,-81.8 0.6,-122.6 3,-31.5 25.4,-59.4 54.2,-71.7 z"
       style="stroke-width:1.02334;stroke-dasharray:none" />
    <path
       id="path3"
       class="s1"
       d="m 991.5,369.6 c 6.8,-1 13.6,0.1 20.4,0.8 43.3,4.7 83.7,29.9 107.2,66.5 13.4,20.6 21.4,44.6 23.1,69.1 0.4,7.5 1.5,15.4 -1.9,22.3 -3.8,9.2 -12.6,16.1 -22.4,17.6 -12.5,1.9 -26.1,-5 -31.2,-16.7 -3.4,-7.2 -2.8,-15.4 -3.6,-23.1 -2.9,-24.9 -17.3,-48.1 -38,-62.1 -13.9,-10 -30.9,-15.8 -48.1,-15.7 -9.3,0.1 -18.8,-3.8 -24.7,-11.1 -4.6,-6 -7.3,-13.7 -6.4,-21.2 1.2,-13.3 12.2,-25 25.6,-26.4 z"
       style="stroke-width:1.02334;stroke-dasharray:none" />
  </g>
</svg>
